M48
;DRILL file {KiCad (5.0.2-5-10.14)} date Saturday, March 09, 2019 at 01:54:26 PM
;FORMAT={-:-/ absolute / inch / decimal}
FMAT,2
INCH,TZ
T1C0.0157
T2C0.0315
T3C0.0433
T4C0.0512
%
G90
G05
T1
X4.45Y-3.7
X4.45Y-3.75
X4.5Y-3.7
X4.5Y-3.75
X5.2Y-3.8
X5.2Y-3.85
X5.25Y-3.8
X5.25Y-3.85
X5.3Y-3.7
T2
X5.5Y-4.1
X5.9Y-4.1
X4.8Y-3.65
X4.8Y-3.75
X4.8Y-3.85
X4.3Y-4.1
X4.4Y-4.1
X4.5Y-4.1
X5.45Y-3.58
X5.5878Y-3.58
X4.8Y-3.1622
X4.8Y-3.3
T3
X5.2Y-3.24
X5.6Y-3.24
T4
X6.07Y-3.5
X6.07Y-3.7
X4.3Y-3.5
X4.3Y-3.7
X5.1031Y-4.
X5.3Y-4.
T0
M30
