G04 #@! TF.GenerationSoftware,KiCad,Pcbnew,(5.0.2-5-10.14)*
G04 #@! TF.CreationDate,2019-03-09T13:51:56-08:00*
G04 #@! TF.ProjectId,sunclock,73756e63-6c6f-4636-9b2e-6b696361645f,rev?*
G04 #@! TF.SameCoordinates,Original*
G04 #@! TF.FileFunction,Copper,L1,Top*
G04 #@! TF.FilePolarity,Positive*
%FSLAX46Y46*%
G04 Gerber Fmt 4.6, Leading zero omitted, Abs format (unit mm)*
G04 Created by KiCad (PCBNEW (5.0.2-5-10.14)) date Saturday, March 09, 2019 at 01:51:56 PM*
%MOMM*%
%LPD*%
G01*
G04 APERTURE LIST*
G04 #@! TA.AperFunction,ComponentPad*
%ADD10C,1.600000*%
G04 #@! TD*
G04 #@! TA.AperFunction,ComponentPad*
%ADD11O,1.600000X1.600000*%
G04 #@! TD*
G04 #@! TA.AperFunction,ComponentPad*
%ADD12C,2.600000*%
G04 #@! TD*
G04 #@! TA.AperFunction,ComponentPad*
%ADD13O,2.000000X1.200000*%
G04 #@! TD*
G04 #@! TA.AperFunction,ComponentPad*
%ADD14O,1.200000X2.000000*%
G04 #@! TD*
G04 #@! TA.AperFunction,ComponentPad*
%ADD15R,1.600000X1.600000*%
G04 #@! TD*
G04 #@! TA.AperFunction,ComponentPad*
%ADD16R,2.200000X2.200000*%
G04 #@! TD*
G04 #@! TA.AperFunction,ComponentPad*
%ADD17O,2.200000X2.200000*%
G04 #@! TD*
G04 #@! TA.AperFunction,SMDPad,CuDef*
%ADD18R,0.650000X2.000000*%
G04 #@! TD*
G04 #@! TA.AperFunction,ComponentPad*
%ADD19R,2.600000X2.600000*%
G04 #@! TD*
G04 #@! TA.AperFunction,Conductor*
%ADD20C,0.100000*%
G04 #@! TD*
G04 #@! TA.AperFunction,SMDPad,CuDef*
%ADD21C,0.590000*%
G04 #@! TD*
G04 #@! TA.AperFunction,ViaPad*
%ADD22C,0.800000*%
G04 #@! TD*
G04 #@! TA.AperFunction,Conductor*
%ADD23C,0.635000*%
G04 #@! TD*
G04 #@! TA.AperFunction,Conductor*
%ADD24C,0.250000*%
G04 #@! TD*
G04 APERTURE END LIST*
D10*
G04 #@! TO.P,R2,1*
G04 #@! TO.N,+5V*
X139700000Y-104140000D03*
D11*
G04 #@! TO.P,R2,2*
G04 #@! TO.N,Net-(J3-Pad3)*
X149860000Y-104140000D03*
G04 #@! TD*
D12*
G04 #@! TO.P,L1,1*
G04 #@! TO.N,Net-(J2-Pad2)*
X134620000Y-101600000D03*
G04 #@! TO.P,L1,2*
G04 #@! TO.N,Net-(C2-Pad2)*
X129620000Y-101600000D03*
G04 #@! TD*
D13*
G04 #@! TO.P,U2,1*
G04 #@! TO.N,+36V*
X121920000Y-92710000D03*
G04 #@! TO.P,U2,2*
G04 #@! TO.N,GND*
X121920000Y-95250000D03*
G04 #@! TO.P,U2,3*
G04 #@! TO.N,+5V*
X121920000Y-97790000D03*
G04 #@! TD*
D14*
G04 #@! TO.P,J3,3*
G04 #@! TO.N,Net-(J3-Pad3)*
X114300000Y-104140000D03*
G04 #@! TO.P,J3,2*
G04 #@! TO.N,+5V*
X111760000Y-104140000D03*
G04 #@! TO.P,J3,1*
G04 #@! TO.N,GND*
X109220000Y-104140000D03*
G04 #@! TD*
D10*
G04 #@! TO.P,C2,2*
G04 #@! TO.N,Net-(C2-Pad2)*
X141930000Y-90932000D03*
D15*
G04 #@! TO.P,C2,1*
G04 #@! TO.N,Net-(C2-Pad1)*
X138430000Y-90932000D03*
G04 #@! TD*
D16*
G04 #@! TO.P,D1,1*
G04 #@! TO.N,+36V*
X132080000Y-82296000D03*
D17*
G04 #@! TO.P,D1,2*
G04 #@! TO.N,Net-(C2-Pad2)*
X142240000Y-82296000D03*
G04 #@! TD*
D18*
G04 #@! TO.P,U1,1*
G04 #@! TO.N,Net-(C2-Pad2)*
X129860000Y-94420000D03*
G04 #@! TO.P,U1,2*
G04 #@! TO.N,GND*
X130810000Y-94420000D03*
G04 #@! TO.P,U1,3*
G04 #@! TO.N,Net-(J3-Pad3)*
X131760000Y-94420000D03*
G04 #@! TO.P,U1,4*
G04 #@! TO.N,Net-(C2-Pad1)*
X131760000Y-91000000D03*
G04 #@! TO.P,U1,5*
G04 #@! TO.N,+36V*
X129860000Y-91000000D03*
G04 #@! TD*
D19*
G04 #@! TO.P,J1,1*
G04 #@! TO.N,GND*
X109220000Y-93980000D03*
D12*
G04 #@! TO.P,J1,2*
G04 #@! TO.N,+36V*
X109220000Y-88900000D03*
G04 #@! TD*
G04 #@! TO.P,J2,2*
G04 #@! TO.N,Net-(J2-Pad2)*
X154178000Y-93980000D03*
D19*
G04 #@! TO.P,J2,1*
G04 #@! TO.N,Net-(C2-Pad1)*
X154178000Y-88900000D03*
G04 #@! TD*
D15*
G04 #@! TO.P,C1,1*
G04 #@! TO.N,+36V*
X121920000Y-83820000D03*
D10*
G04 #@! TO.P,C1,2*
G04 #@! TO.N,GND*
X121920000Y-80320000D03*
G04 #@! TD*
D20*
G04 #@! TO.N,+36V*
G04 #@! TO.C,R1*
G36*
X130486958Y-88072710D02*
X130501276Y-88074834D01*
X130515317Y-88078351D01*
X130528946Y-88083228D01*
X130542031Y-88089417D01*
X130554447Y-88096858D01*
X130566073Y-88105481D01*
X130576798Y-88115202D01*
X130586519Y-88125927D01*
X130595142Y-88137553D01*
X130602583Y-88149969D01*
X130608772Y-88163054D01*
X130613649Y-88176683D01*
X130617166Y-88190724D01*
X130619290Y-88205042D01*
X130620000Y-88219500D01*
X130620000Y-88564500D01*
X130619290Y-88578958D01*
X130617166Y-88593276D01*
X130613649Y-88607317D01*
X130608772Y-88620946D01*
X130602583Y-88634031D01*
X130595142Y-88646447D01*
X130586519Y-88658073D01*
X130576798Y-88668798D01*
X130566073Y-88678519D01*
X130554447Y-88687142D01*
X130542031Y-88694583D01*
X130528946Y-88700772D01*
X130515317Y-88705649D01*
X130501276Y-88709166D01*
X130486958Y-88711290D01*
X130472500Y-88712000D01*
X130177500Y-88712000D01*
X130163042Y-88711290D01*
X130148724Y-88709166D01*
X130134683Y-88705649D01*
X130121054Y-88700772D01*
X130107969Y-88694583D01*
X130095553Y-88687142D01*
X130083927Y-88678519D01*
X130073202Y-88668798D01*
X130063481Y-88658073D01*
X130054858Y-88646447D01*
X130047417Y-88634031D01*
X130041228Y-88620946D01*
X130036351Y-88607317D01*
X130032834Y-88593276D01*
X130030710Y-88578958D01*
X130030000Y-88564500D01*
X130030000Y-88219500D01*
X130030710Y-88205042D01*
X130032834Y-88190724D01*
X130036351Y-88176683D01*
X130041228Y-88163054D01*
X130047417Y-88149969D01*
X130054858Y-88137553D01*
X130063481Y-88125927D01*
X130073202Y-88115202D01*
X130083927Y-88105481D01*
X130095553Y-88096858D01*
X130107969Y-88089417D01*
X130121054Y-88083228D01*
X130134683Y-88078351D01*
X130148724Y-88074834D01*
X130163042Y-88072710D01*
X130177500Y-88072000D01*
X130472500Y-88072000D01*
X130486958Y-88072710D01*
X130486958Y-88072710D01*
G37*
D21*
G04 #@! TD*
G04 #@! TO.P,R1,1*
G04 #@! TO.N,+36V*
X130325000Y-88392000D03*
D20*
G04 #@! TO.N,Net-(C2-Pad1)*
G04 #@! TO.C,R1*
G36*
X131456958Y-88072710D02*
X131471276Y-88074834D01*
X131485317Y-88078351D01*
X131498946Y-88083228D01*
X131512031Y-88089417D01*
X131524447Y-88096858D01*
X131536073Y-88105481D01*
X131546798Y-88115202D01*
X131556519Y-88125927D01*
X131565142Y-88137553D01*
X131572583Y-88149969D01*
X131578772Y-88163054D01*
X131583649Y-88176683D01*
X131587166Y-88190724D01*
X131589290Y-88205042D01*
X131590000Y-88219500D01*
X131590000Y-88564500D01*
X131589290Y-88578958D01*
X131587166Y-88593276D01*
X131583649Y-88607317D01*
X131578772Y-88620946D01*
X131572583Y-88634031D01*
X131565142Y-88646447D01*
X131556519Y-88658073D01*
X131546798Y-88668798D01*
X131536073Y-88678519D01*
X131524447Y-88687142D01*
X131512031Y-88694583D01*
X131498946Y-88700772D01*
X131485317Y-88705649D01*
X131471276Y-88709166D01*
X131456958Y-88711290D01*
X131442500Y-88712000D01*
X131147500Y-88712000D01*
X131133042Y-88711290D01*
X131118724Y-88709166D01*
X131104683Y-88705649D01*
X131091054Y-88700772D01*
X131077969Y-88694583D01*
X131065553Y-88687142D01*
X131053927Y-88678519D01*
X131043202Y-88668798D01*
X131033481Y-88658073D01*
X131024858Y-88646447D01*
X131017417Y-88634031D01*
X131011228Y-88620946D01*
X131006351Y-88607317D01*
X131002834Y-88593276D01*
X131000710Y-88578958D01*
X131000000Y-88564500D01*
X131000000Y-88219500D01*
X131000710Y-88205042D01*
X131002834Y-88190724D01*
X131006351Y-88176683D01*
X131011228Y-88163054D01*
X131017417Y-88149969D01*
X131024858Y-88137553D01*
X131033481Y-88125927D01*
X131043202Y-88115202D01*
X131053927Y-88105481D01*
X131065553Y-88096858D01*
X131077969Y-88089417D01*
X131091054Y-88083228D01*
X131104683Y-88078351D01*
X131118724Y-88074834D01*
X131133042Y-88072710D01*
X131147500Y-88072000D01*
X131442500Y-88072000D01*
X131456958Y-88072710D01*
X131456958Y-88072710D01*
G37*
D21*
G04 #@! TD*
G04 #@! TO.P,R1,2*
G04 #@! TO.N,Net-(C2-Pad1)*
X131295000Y-88392000D03*
D22*
G04 #@! TO.N,Net-(J3-Pad3)*
X134620000Y-93980000D03*
G04 #@! TO.N,GND*
X114300000Y-93980000D03*
X113030000Y-93980000D03*
X113030000Y-95250000D03*
X114300000Y-95250000D03*
X132080000Y-96520000D03*
X133350000Y-96520000D03*
X133350000Y-97790000D03*
X132080000Y-97790000D03*
G04 #@! TD*
D23*
G04 #@! TO.N,+36V*
X130325000Y-88392000D02*
X129817000Y-88900000D01*
X129860000Y-88943000D02*
X129860000Y-91000000D01*
X129817000Y-88900000D02*
X129860000Y-88943000D01*
X130345000Y-82296000D02*
X132080000Y-82296000D01*
X129540000Y-83101000D02*
X130345000Y-82296000D01*
X129540000Y-87187000D02*
X129540000Y-83101000D01*
X130325000Y-87972000D02*
X129540000Y-87187000D01*
X130325000Y-88392000D02*
X130325000Y-87972000D01*
X109220000Y-88900000D02*
X114300000Y-83820000D01*
X114300000Y-83820000D02*
X121920000Y-83820000D01*
X121920000Y-83820000D02*
X129540000Y-83820000D01*
X121920000Y-92710000D02*
X121920000Y-83820000D01*
G04 #@! TO.N,Net-(C2-Pad1)*
X131295000Y-88392000D02*
X131803000Y-88900000D01*
X131760000Y-88943000D02*
X131760000Y-91000000D01*
X131803000Y-88900000D02*
X131760000Y-88943000D01*
X138362000Y-91000000D02*
X138430000Y-90932000D01*
X131760000Y-91000000D02*
X138362000Y-91000000D01*
X154178000Y-86965000D02*
X154178000Y-88900000D01*
X145953000Y-78740000D02*
X154178000Y-86965000D01*
X137160000Y-78740000D02*
X145953000Y-78740000D01*
X137160000Y-88227000D02*
X137160000Y-78740000D01*
X138430000Y-89497000D02*
X137160000Y-88227000D01*
X138430000Y-90932000D02*
X138430000Y-89497000D01*
G04 #@! TO.N,Net-(C2-Pad2)*
X142240000Y-90622000D02*
X141930000Y-90932000D01*
X142240000Y-82296000D02*
X142240000Y-90622000D01*
X129860000Y-94420000D02*
X129860000Y-96200000D01*
X129860000Y-96200000D02*
X129620000Y-96440000D01*
X129620000Y-96440000D02*
X129620000Y-99060000D01*
X129620000Y-99060000D02*
X129620000Y-101600000D01*
X137160000Y-95702000D02*
X141930000Y-90932000D01*
X134620000Y-99060000D02*
X137160000Y-96520000D01*
X137160000Y-96520000D02*
X137160000Y-95702000D01*
X129620000Y-99060000D02*
X134620000Y-99060000D01*
G04 #@! TO.N,GND*
X109220000Y-93980000D02*
X109220000Y-104140000D01*
X109220000Y-93980000D02*
X113030000Y-93980000D01*
X113030000Y-95250000D02*
X114300000Y-95250000D01*
X114300000Y-93980000D02*
X113030000Y-93980000D01*
X113030000Y-95250000D02*
X113030000Y-93980000D01*
X114300000Y-93980000D02*
X114300000Y-95250000D01*
X130810000Y-96055000D02*
X131275000Y-96520000D01*
X130810000Y-94420000D02*
X130810000Y-96055000D01*
X131275000Y-96520000D02*
X132080000Y-96520000D01*
X132080000Y-97790000D02*
X132080000Y-96520000D01*
X132080000Y-96520000D02*
X133350000Y-96520000D01*
X133350000Y-97790000D02*
X133350000Y-96520000D01*
X132080000Y-97790000D02*
X133350000Y-97790000D01*
G04 #@! TO.N,Net-(J2-Pad2)*
X149098000Y-99060000D02*
X154178000Y-93980000D01*
X137160000Y-99060000D02*
X149098000Y-99060000D01*
X134620000Y-101600000D02*
X137160000Y-99060000D01*
G04 #@! TO.N,+5V*
X111760000Y-104140000D02*
X111760000Y-101600000D01*
D24*
X124460000Y-101600000D02*
X124460000Y-102870000D01*
X125730000Y-104140000D02*
X139700000Y-104140000D01*
X124460000Y-102870000D02*
X125730000Y-104140000D01*
D23*
X121920000Y-97790000D02*
X121920000Y-101600000D01*
X121920000Y-101600000D02*
X124460000Y-101600000D01*
X111760000Y-101600000D02*
X121920000Y-101600000D01*
D24*
G04 #@! TO.N,Net-(J3-Pad3)*
X134180000Y-94420000D02*
X134620000Y-93980000D01*
X131760000Y-94420000D02*
X134180000Y-94420000D01*
G04 #@! TD*
M02*
