G04 #@! TF.GenerationSoftware,KiCad,Pcbnew,(5.0.2-5-10.14)*
G04 #@! TF.CreationDate,2019-03-09T13:51:56-08:00*
G04 #@! TF.ProjectId,sunclock,73756e63-6c6f-4636-9b2e-6b696361645f,rev?*
G04 #@! TF.SameCoordinates,Original*
G04 #@! TF.FileFunction,Copper,L2,Bot*
G04 #@! TF.FilePolarity,Positive*
%FSLAX46Y46*%
G04 Gerber Fmt 4.6, Leading zero omitted, Abs format (unit mm)*
G04 Created by KiCad (PCBNEW (5.0.2-5-10.14)) date Saturday, March 09, 2019 at 01:51:56 PM*
%MOMM*%
%LPD*%
G01*
G04 APERTURE LIST*
G04 #@! TA.AperFunction,ComponentPad*
%ADD10C,1.600000*%
G04 #@! TD*
G04 #@! TA.AperFunction,ComponentPad*
%ADD11O,1.600000X1.600000*%
G04 #@! TD*
G04 #@! TA.AperFunction,ComponentPad*
%ADD12C,2.600000*%
G04 #@! TD*
G04 #@! TA.AperFunction,ComponentPad*
%ADD13O,2.000000X1.200000*%
G04 #@! TD*
G04 #@! TA.AperFunction,ComponentPad*
%ADD14O,1.200000X2.000000*%
G04 #@! TD*
G04 #@! TA.AperFunction,ComponentPad*
%ADD15R,1.600000X1.600000*%
G04 #@! TD*
G04 #@! TA.AperFunction,ComponentPad*
%ADD16R,2.200000X2.200000*%
G04 #@! TD*
G04 #@! TA.AperFunction,ComponentPad*
%ADD17O,2.200000X2.200000*%
G04 #@! TD*
G04 #@! TA.AperFunction,ComponentPad*
%ADD18R,2.600000X2.600000*%
G04 #@! TD*
G04 #@! TA.AperFunction,ViaPad*
%ADD19C,0.800000*%
G04 #@! TD*
G04 #@! TA.AperFunction,Conductor*
%ADD20C,0.250000*%
G04 #@! TD*
G04 #@! TA.AperFunction,Conductor*
%ADD21C,0.254000*%
G04 #@! TD*
G04 APERTURE END LIST*
D10*
G04 #@! TO.P,R2,1*
G04 #@! TO.N,+5V*
X139700000Y-104140000D03*
D11*
G04 #@! TO.P,R2,2*
G04 #@! TO.N,Net-(J3-Pad3)*
X149860000Y-104140000D03*
G04 #@! TD*
D12*
G04 #@! TO.P,L1,1*
G04 #@! TO.N,Net-(J2-Pad2)*
X134620000Y-101600000D03*
G04 #@! TO.P,L1,2*
G04 #@! TO.N,Net-(C2-Pad2)*
X129620000Y-101600000D03*
G04 #@! TD*
D13*
G04 #@! TO.P,U2,1*
G04 #@! TO.N,+36V*
X121920000Y-92710000D03*
G04 #@! TO.P,U2,2*
G04 #@! TO.N,GND*
X121920000Y-95250000D03*
G04 #@! TO.P,U2,3*
G04 #@! TO.N,+5V*
X121920000Y-97790000D03*
G04 #@! TD*
D14*
G04 #@! TO.P,J3,3*
G04 #@! TO.N,Net-(J3-Pad3)*
X114300000Y-104140000D03*
G04 #@! TO.P,J3,2*
G04 #@! TO.N,+5V*
X111760000Y-104140000D03*
G04 #@! TO.P,J3,1*
G04 #@! TO.N,GND*
X109220000Y-104140000D03*
G04 #@! TD*
D10*
G04 #@! TO.P,C2,2*
G04 #@! TO.N,Net-(C2-Pad2)*
X141930000Y-90932000D03*
D15*
G04 #@! TO.P,C2,1*
G04 #@! TO.N,Net-(C2-Pad1)*
X138430000Y-90932000D03*
G04 #@! TD*
D16*
G04 #@! TO.P,D1,1*
G04 #@! TO.N,+36V*
X132080000Y-82296000D03*
D17*
G04 #@! TO.P,D1,2*
G04 #@! TO.N,Net-(C2-Pad2)*
X142240000Y-82296000D03*
G04 #@! TD*
D18*
G04 #@! TO.P,J1,1*
G04 #@! TO.N,GND*
X109220000Y-93980000D03*
D12*
G04 #@! TO.P,J1,2*
G04 #@! TO.N,+36V*
X109220000Y-88900000D03*
G04 #@! TD*
G04 #@! TO.P,J2,2*
G04 #@! TO.N,Net-(J2-Pad2)*
X154178000Y-93980000D03*
D18*
G04 #@! TO.P,J2,1*
G04 #@! TO.N,Net-(C2-Pad1)*
X154178000Y-88900000D03*
G04 #@! TD*
D15*
G04 #@! TO.P,C1,1*
G04 #@! TO.N,+36V*
X121920000Y-83820000D03*
D10*
G04 #@! TO.P,C1,2*
G04 #@! TO.N,GND*
X121920000Y-80320000D03*
G04 #@! TD*
D19*
G04 #@! TO.N,Net-(J3-Pad3)*
X134620000Y-93980000D03*
G04 #@! TO.N,GND*
X114300000Y-93980000D03*
X113030000Y-93980000D03*
X113030000Y-95250000D03*
X114300000Y-95250000D03*
X132080000Y-96520000D03*
X133350000Y-96520000D03*
X133350000Y-97790000D03*
X132080000Y-97790000D03*
G04 #@! TD*
D20*
G04 #@! TO.N,Net-(J3-Pad3)*
X139700000Y-93980000D02*
X149860000Y-104140000D01*
X134620000Y-93980000D02*
X139700000Y-93980000D01*
X118745000Y-104140000D02*
X114300000Y-104140000D01*
X120015000Y-105410000D02*
X118745000Y-104140000D01*
X138430000Y-101600000D02*
X134620000Y-105410000D01*
X134620000Y-105410000D02*
X120015000Y-105410000D01*
X138430000Y-101600000D02*
X138430000Y-97790000D01*
X138430000Y-97790000D02*
X139700000Y-96520000D01*
X139700000Y-96520000D02*
X140970000Y-95250000D01*
G04 #@! TD*
D21*
G04 #@! TO.N,GND*
G36*
X159310001Y-105970000D02*
X135149863Y-105970000D01*
X135167929Y-105957929D01*
X135210331Y-105894470D01*
X137250240Y-103854561D01*
X138265000Y-103854561D01*
X138265000Y-104425439D01*
X138483466Y-104952862D01*
X138887138Y-105356534D01*
X139414561Y-105575000D01*
X139985439Y-105575000D01*
X140512862Y-105356534D01*
X140916534Y-104952862D01*
X141135000Y-104425439D01*
X141135000Y-103854561D01*
X140916534Y-103327138D01*
X140512862Y-102923466D01*
X139985439Y-102705000D01*
X139414561Y-102705000D01*
X138887138Y-102923466D01*
X138483466Y-103327138D01*
X138265000Y-103854561D01*
X137250240Y-103854561D01*
X138914473Y-102190329D01*
X138977929Y-102147929D01*
X139086865Y-101984895D01*
X139145904Y-101896538D01*
X139155480Y-101848395D01*
X139190000Y-101674852D01*
X139190000Y-101674848D01*
X139204888Y-101600000D01*
X139190000Y-101525152D01*
X139190000Y-98104801D01*
X140290329Y-97004473D01*
X140290331Y-97004470D01*
X140970000Y-96324801D01*
X148461312Y-103816114D01*
X148396887Y-104140000D01*
X148508260Y-104699909D01*
X148825423Y-105174577D01*
X149300091Y-105491740D01*
X149718667Y-105575000D01*
X150001333Y-105575000D01*
X150419909Y-105491740D01*
X150894577Y-105174577D01*
X151211740Y-104699909D01*
X151323113Y-104140000D01*
X151211740Y-103580091D01*
X150894577Y-103105423D01*
X150419909Y-102788260D01*
X150001333Y-102705000D01*
X149718667Y-102705000D01*
X149536114Y-102741312D01*
X141560330Y-94765529D01*
X141517929Y-94702071D01*
X141454471Y-94659670D01*
X140389906Y-93595105D01*
X152243000Y-93595105D01*
X152243000Y-94364895D01*
X152537586Y-95076090D01*
X153081910Y-95620414D01*
X153793105Y-95915000D01*
X154562895Y-95915000D01*
X155274090Y-95620414D01*
X155818414Y-95076090D01*
X156113000Y-94364895D01*
X156113000Y-93595105D01*
X155818414Y-92883910D01*
X155274090Y-92339586D01*
X154562895Y-92045000D01*
X153793105Y-92045000D01*
X153081910Y-92339586D01*
X152537586Y-92883910D01*
X152243000Y-93595105D01*
X140389906Y-93595105D01*
X140290331Y-93495530D01*
X140247929Y-93432071D01*
X139996537Y-93264096D01*
X139774852Y-93220000D01*
X139774847Y-93220000D01*
X139700000Y-93205112D01*
X139625153Y-93220000D01*
X135323711Y-93220000D01*
X135206280Y-93102569D01*
X134825874Y-92945000D01*
X134414126Y-92945000D01*
X134033720Y-93102569D01*
X133742569Y-93393720D01*
X133585000Y-93774126D01*
X133585000Y-94185874D01*
X133742569Y-94566280D01*
X134033720Y-94857431D01*
X134414126Y-95015000D01*
X134825874Y-95015000D01*
X135206280Y-94857431D01*
X135323711Y-94740000D01*
X139385199Y-94740000D01*
X139895199Y-95250000D01*
X139215530Y-95929669D01*
X139215527Y-95929671D01*
X137945528Y-97199671D01*
X137882072Y-97242071D01*
X137839672Y-97305527D01*
X137839671Y-97305528D01*
X137714097Y-97493463D01*
X137655112Y-97790000D01*
X137670001Y-97864852D01*
X137670000Y-101285198D01*
X136261337Y-102693861D01*
X136555000Y-101984895D01*
X136555000Y-101215105D01*
X136260414Y-100503910D01*
X135716090Y-99959586D01*
X135004895Y-99665000D01*
X134235105Y-99665000D01*
X133523910Y-99959586D01*
X132979586Y-100503910D01*
X132685000Y-101215105D01*
X132685000Y-101984895D01*
X132979586Y-102696090D01*
X133523910Y-103240414D01*
X134235105Y-103535000D01*
X135004895Y-103535000D01*
X135713861Y-103241337D01*
X134305199Y-104650000D01*
X120329802Y-104650000D01*
X119335331Y-103655530D01*
X119292929Y-103592071D01*
X119041537Y-103424096D01*
X118819852Y-103380000D01*
X118819847Y-103380000D01*
X118745000Y-103365112D01*
X118670153Y-103380000D01*
X115487586Y-103380000D01*
X115463344Y-103258127D01*
X115190385Y-102849615D01*
X114781872Y-102576656D01*
X114300000Y-102480805D01*
X113818127Y-102576656D01*
X113409615Y-102849615D01*
X113136656Y-103258128D01*
X113065000Y-103618365D01*
X113065000Y-104661636D01*
X113136656Y-105021873D01*
X113409616Y-105430385D01*
X113818128Y-105703344D01*
X114300000Y-105799195D01*
X114781873Y-105703344D01*
X115190385Y-105430385D01*
X115463344Y-105021873D01*
X115487586Y-104900000D01*
X118430199Y-104900000D01*
X119424671Y-105894473D01*
X119467071Y-105957929D01*
X119485137Y-105970000D01*
X104850000Y-105970000D01*
X104850000Y-104267000D01*
X107985000Y-104267000D01*
X107985000Y-104667000D01*
X108127610Y-105129947D01*
X108436526Y-105503080D01*
X108864719Y-105729592D01*
X108902391Y-105733462D01*
X109093000Y-105608731D01*
X109093000Y-104267000D01*
X109347000Y-104267000D01*
X109347000Y-105608731D01*
X109537609Y-105733462D01*
X109575281Y-105729592D01*
X110003474Y-105503080D01*
X110312390Y-105129947D01*
X110455000Y-104667000D01*
X110455000Y-104267000D01*
X109347000Y-104267000D01*
X109093000Y-104267000D01*
X107985000Y-104267000D01*
X104850000Y-104267000D01*
X104850000Y-103613000D01*
X107985000Y-103613000D01*
X107985000Y-104013000D01*
X109093000Y-104013000D01*
X109093000Y-102671269D01*
X109347000Y-102671269D01*
X109347000Y-104013000D01*
X110455000Y-104013000D01*
X110455000Y-103618365D01*
X110525000Y-103618365D01*
X110525000Y-104661636D01*
X110596656Y-105021873D01*
X110869616Y-105430385D01*
X111278128Y-105703344D01*
X111760000Y-105799195D01*
X112241873Y-105703344D01*
X112650385Y-105430385D01*
X112923344Y-105021873D01*
X112995000Y-104661635D01*
X112995000Y-103618364D01*
X112923344Y-103258127D01*
X112650385Y-102849615D01*
X112241872Y-102576656D01*
X111760000Y-102480805D01*
X111278127Y-102576656D01*
X110869615Y-102849615D01*
X110596656Y-103258128D01*
X110525000Y-103618365D01*
X110455000Y-103618365D01*
X110455000Y-103613000D01*
X110312390Y-103150053D01*
X110003474Y-102776920D01*
X109575281Y-102550408D01*
X109537609Y-102546538D01*
X109347000Y-102671269D01*
X109093000Y-102671269D01*
X108902391Y-102546538D01*
X108864719Y-102550408D01*
X108436526Y-102776920D01*
X108127610Y-103150053D01*
X107985000Y-103613000D01*
X104850000Y-103613000D01*
X104850000Y-101215105D01*
X127685000Y-101215105D01*
X127685000Y-101984895D01*
X127979586Y-102696090D01*
X128523910Y-103240414D01*
X129235105Y-103535000D01*
X130004895Y-103535000D01*
X130716090Y-103240414D01*
X131260414Y-102696090D01*
X131555000Y-101984895D01*
X131555000Y-101215105D01*
X131260414Y-100503910D01*
X130716090Y-99959586D01*
X130004895Y-99665000D01*
X129235105Y-99665000D01*
X128523910Y-99959586D01*
X127979586Y-100503910D01*
X127685000Y-101215105D01*
X104850000Y-101215105D01*
X104850000Y-97790000D01*
X120260805Y-97790000D01*
X120356656Y-98271873D01*
X120629615Y-98680385D01*
X121038127Y-98953344D01*
X121398364Y-99025000D01*
X122441636Y-99025000D01*
X122801873Y-98953344D01*
X123210385Y-98680385D01*
X123483344Y-98271873D01*
X123579195Y-97790000D01*
X123483344Y-97308127D01*
X123210385Y-96899615D01*
X122801873Y-96626656D01*
X122441636Y-96555000D01*
X121398364Y-96555000D01*
X121038127Y-96626656D01*
X120629615Y-96899615D01*
X120356656Y-97308127D01*
X120260805Y-97790000D01*
X104850000Y-97790000D01*
X104850000Y-94265750D01*
X107285000Y-94265750D01*
X107285000Y-95406309D01*
X107381673Y-95639698D01*
X107560301Y-95818327D01*
X107793690Y-95915000D01*
X108934250Y-95915000D01*
X109093000Y-95756250D01*
X109093000Y-94107000D01*
X109347000Y-94107000D01*
X109347000Y-95756250D01*
X109505750Y-95915000D01*
X110646310Y-95915000D01*
X110879699Y-95818327D01*
X111058327Y-95639698D01*
X111088187Y-95567609D01*
X120326538Y-95567609D01*
X120330408Y-95605281D01*
X120556920Y-96033474D01*
X120930053Y-96342390D01*
X121393000Y-96485000D01*
X121793000Y-96485000D01*
X121793000Y-95377000D01*
X122047000Y-95377000D01*
X122047000Y-96485000D01*
X122447000Y-96485000D01*
X122909947Y-96342390D01*
X123283080Y-96033474D01*
X123509592Y-95605281D01*
X123513462Y-95567609D01*
X123388731Y-95377000D01*
X122047000Y-95377000D01*
X121793000Y-95377000D01*
X120451269Y-95377000D01*
X120326538Y-95567609D01*
X111088187Y-95567609D01*
X111155000Y-95406309D01*
X111155000Y-94932391D01*
X120326538Y-94932391D01*
X120451269Y-95123000D01*
X121793000Y-95123000D01*
X121793000Y-94015000D01*
X122047000Y-94015000D01*
X122047000Y-95123000D01*
X123388731Y-95123000D01*
X123513462Y-94932391D01*
X123509592Y-94894719D01*
X123283080Y-94466526D01*
X122909947Y-94157610D01*
X122447000Y-94015000D01*
X122047000Y-94015000D01*
X121793000Y-94015000D01*
X121393000Y-94015000D01*
X120930053Y-94157610D01*
X120556920Y-94466526D01*
X120330408Y-94894719D01*
X120326538Y-94932391D01*
X111155000Y-94932391D01*
X111155000Y-94265750D01*
X110996250Y-94107000D01*
X109347000Y-94107000D01*
X109093000Y-94107000D01*
X107443750Y-94107000D01*
X107285000Y-94265750D01*
X104850000Y-94265750D01*
X104850000Y-92553691D01*
X107285000Y-92553691D01*
X107285000Y-93694250D01*
X107443750Y-93853000D01*
X109093000Y-93853000D01*
X109093000Y-92203750D01*
X109347000Y-92203750D01*
X109347000Y-93853000D01*
X110996250Y-93853000D01*
X111155000Y-93694250D01*
X111155000Y-92710000D01*
X120260805Y-92710000D01*
X120356656Y-93191873D01*
X120629615Y-93600385D01*
X121038127Y-93873344D01*
X121398364Y-93945000D01*
X122441636Y-93945000D01*
X122801873Y-93873344D01*
X123210385Y-93600385D01*
X123483344Y-93191873D01*
X123579195Y-92710000D01*
X123483344Y-92228127D01*
X123210385Y-91819615D01*
X122801873Y-91546656D01*
X122441636Y-91475000D01*
X121398364Y-91475000D01*
X121038127Y-91546656D01*
X120629615Y-91819615D01*
X120356656Y-92228127D01*
X120260805Y-92710000D01*
X111155000Y-92710000D01*
X111155000Y-92553691D01*
X111058327Y-92320302D01*
X110879699Y-92141673D01*
X110646310Y-92045000D01*
X109505750Y-92045000D01*
X109347000Y-92203750D01*
X109093000Y-92203750D01*
X108934250Y-92045000D01*
X107793690Y-92045000D01*
X107560301Y-92141673D01*
X107381673Y-92320302D01*
X107285000Y-92553691D01*
X104850000Y-92553691D01*
X104850000Y-88515105D01*
X107285000Y-88515105D01*
X107285000Y-89284895D01*
X107579586Y-89996090D01*
X108123910Y-90540414D01*
X108835105Y-90835000D01*
X109604895Y-90835000D01*
X110316090Y-90540414D01*
X110724504Y-90132000D01*
X136982560Y-90132000D01*
X136982560Y-91732000D01*
X137031843Y-91979765D01*
X137172191Y-92189809D01*
X137382235Y-92330157D01*
X137630000Y-92379440D01*
X139230000Y-92379440D01*
X139477765Y-92330157D01*
X139687809Y-92189809D01*
X139828157Y-91979765D01*
X139877440Y-91732000D01*
X139877440Y-90646561D01*
X140495000Y-90646561D01*
X140495000Y-91217439D01*
X140713466Y-91744862D01*
X141117138Y-92148534D01*
X141644561Y-92367000D01*
X142215439Y-92367000D01*
X142742862Y-92148534D01*
X143146534Y-91744862D01*
X143365000Y-91217439D01*
X143365000Y-90646561D01*
X143146534Y-90119138D01*
X142742862Y-89715466D01*
X142215439Y-89497000D01*
X141644561Y-89497000D01*
X141117138Y-89715466D01*
X140713466Y-90119138D01*
X140495000Y-90646561D01*
X139877440Y-90646561D01*
X139877440Y-90132000D01*
X139828157Y-89884235D01*
X139687809Y-89674191D01*
X139477765Y-89533843D01*
X139230000Y-89484560D01*
X137630000Y-89484560D01*
X137382235Y-89533843D01*
X137172191Y-89674191D01*
X137031843Y-89884235D01*
X136982560Y-90132000D01*
X110724504Y-90132000D01*
X110860414Y-89996090D01*
X111155000Y-89284895D01*
X111155000Y-88515105D01*
X110860414Y-87803910D01*
X110656504Y-87600000D01*
X152230560Y-87600000D01*
X152230560Y-90200000D01*
X152279843Y-90447765D01*
X152420191Y-90657809D01*
X152630235Y-90798157D01*
X152878000Y-90847440D01*
X155478000Y-90847440D01*
X155725765Y-90798157D01*
X155935809Y-90657809D01*
X156076157Y-90447765D01*
X156125440Y-90200000D01*
X156125440Y-87600000D01*
X156076157Y-87352235D01*
X155935809Y-87142191D01*
X155725765Y-87001843D01*
X155478000Y-86952560D01*
X152878000Y-86952560D01*
X152630235Y-87001843D01*
X152420191Y-87142191D01*
X152279843Y-87352235D01*
X152230560Y-87600000D01*
X110656504Y-87600000D01*
X110316090Y-87259586D01*
X109604895Y-86965000D01*
X108835105Y-86965000D01*
X108123910Y-87259586D01*
X107579586Y-87803910D01*
X107285000Y-88515105D01*
X104850000Y-88515105D01*
X104850000Y-83020000D01*
X120472560Y-83020000D01*
X120472560Y-84620000D01*
X120521843Y-84867765D01*
X120662191Y-85077809D01*
X120872235Y-85218157D01*
X121120000Y-85267440D01*
X122720000Y-85267440D01*
X122967765Y-85218157D01*
X123177809Y-85077809D01*
X123318157Y-84867765D01*
X123367440Y-84620000D01*
X123367440Y-83020000D01*
X123318157Y-82772235D01*
X123177809Y-82562191D01*
X122967765Y-82421843D01*
X122720000Y-82372560D01*
X121120000Y-82372560D01*
X120872235Y-82421843D01*
X120662191Y-82562191D01*
X120521843Y-82772235D01*
X120472560Y-83020000D01*
X104850000Y-83020000D01*
X104850000Y-81327745D01*
X121091861Y-81327745D01*
X121165995Y-81573864D01*
X121703223Y-81766965D01*
X122273454Y-81739778D01*
X122674005Y-81573864D01*
X122748139Y-81327745D01*
X122616395Y-81196000D01*
X130332560Y-81196000D01*
X130332560Y-83396000D01*
X130381843Y-83643765D01*
X130522191Y-83853809D01*
X130732235Y-83994157D01*
X130980000Y-84043440D01*
X133180000Y-84043440D01*
X133427765Y-83994157D01*
X133637809Y-83853809D01*
X133778157Y-83643765D01*
X133827440Y-83396000D01*
X133827440Y-82296000D01*
X140471010Y-82296000D01*
X140605666Y-82972963D01*
X140989135Y-83546865D01*
X141563037Y-83930334D01*
X142069120Y-84031000D01*
X142410880Y-84031000D01*
X142916963Y-83930334D01*
X143490865Y-83546865D01*
X143874334Y-82972963D01*
X144008990Y-82296000D01*
X143874334Y-81619037D01*
X143490865Y-81045135D01*
X142916963Y-80661666D01*
X142410880Y-80561000D01*
X142069120Y-80561000D01*
X141563037Y-80661666D01*
X140989135Y-81045135D01*
X140605666Y-81619037D01*
X140471010Y-82296000D01*
X133827440Y-82296000D01*
X133827440Y-81196000D01*
X133778157Y-80948235D01*
X133637809Y-80738191D01*
X133427765Y-80597843D01*
X133180000Y-80548560D01*
X130980000Y-80548560D01*
X130732235Y-80597843D01*
X130522191Y-80738191D01*
X130381843Y-80948235D01*
X130332560Y-81196000D01*
X122616395Y-81196000D01*
X121920000Y-80499605D01*
X121091861Y-81327745D01*
X104850000Y-81327745D01*
X104850000Y-80103223D01*
X120473035Y-80103223D01*
X120500222Y-80673454D01*
X120666136Y-81074005D01*
X120912255Y-81148139D01*
X121740395Y-80320000D01*
X122099605Y-80320000D01*
X122927745Y-81148139D01*
X123173864Y-81074005D01*
X123366965Y-80536777D01*
X123339778Y-79966546D01*
X123173864Y-79565995D01*
X122927745Y-79491861D01*
X122099605Y-80320000D01*
X121740395Y-80320000D01*
X120912255Y-79491861D01*
X120666136Y-79565995D01*
X120473035Y-80103223D01*
X104850000Y-80103223D01*
X104850000Y-79312255D01*
X121091861Y-79312255D01*
X121920000Y-80140395D01*
X122748139Y-79312255D01*
X122674005Y-79066136D01*
X122136777Y-78873035D01*
X121566546Y-78900222D01*
X121165995Y-79066136D01*
X121091861Y-79312255D01*
X104850000Y-79312255D01*
X104850000Y-76910000D01*
X159310000Y-76910000D01*
X159310001Y-105970000D01*
X159310001Y-105970000D01*
G37*
X159310001Y-105970000D02*
X135149863Y-105970000D01*
X135167929Y-105957929D01*
X135210331Y-105894470D01*
X137250240Y-103854561D01*
X138265000Y-103854561D01*
X138265000Y-104425439D01*
X138483466Y-104952862D01*
X138887138Y-105356534D01*
X139414561Y-105575000D01*
X139985439Y-105575000D01*
X140512862Y-105356534D01*
X140916534Y-104952862D01*
X141135000Y-104425439D01*
X141135000Y-103854561D01*
X140916534Y-103327138D01*
X140512862Y-102923466D01*
X139985439Y-102705000D01*
X139414561Y-102705000D01*
X138887138Y-102923466D01*
X138483466Y-103327138D01*
X138265000Y-103854561D01*
X137250240Y-103854561D01*
X138914473Y-102190329D01*
X138977929Y-102147929D01*
X139086865Y-101984895D01*
X139145904Y-101896538D01*
X139155480Y-101848395D01*
X139190000Y-101674852D01*
X139190000Y-101674848D01*
X139204888Y-101600000D01*
X139190000Y-101525152D01*
X139190000Y-98104801D01*
X140290329Y-97004473D01*
X140290331Y-97004470D01*
X140970000Y-96324801D01*
X148461312Y-103816114D01*
X148396887Y-104140000D01*
X148508260Y-104699909D01*
X148825423Y-105174577D01*
X149300091Y-105491740D01*
X149718667Y-105575000D01*
X150001333Y-105575000D01*
X150419909Y-105491740D01*
X150894577Y-105174577D01*
X151211740Y-104699909D01*
X151323113Y-104140000D01*
X151211740Y-103580091D01*
X150894577Y-103105423D01*
X150419909Y-102788260D01*
X150001333Y-102705000D01*
X149718667Y-102705000D01*
X149536114Y-102741312D01*
X141560330Y-94765529D01*
X141517929Y-94702071D01*
X141454471Y-94659670D01*
X140389906Y-93595105D01*
X152243000Y-93595105D01*
X152243000Y-94364895D01*
X152537586Y-95076090D01*
X153081910Y-95620414D01*
X153793105Y-95915000D01*
X154562895Y-95915000D01*
X155274090Y-95620414D01*
X155818414Y-95076090D01*
X156113000Y-94364895D01*
X156113000Y-93595105D01*
X155818414Y-92883910D01*
X155274090Y-92339586D01*
X154562895Y-92045000D01*
X153793105Y-92045000D01*
X153081910Y-92339586D01*
X152537586Y-92883910D01*
X152243000Y-93595105D01*
X140389906Y-93595105D01*
X140290331Y-93495530D01*
X140247929Y-93432071D01*
X139996537Y-93264096D01*
X139774852Y-93220000D01*
X139774847Y-93220000D01*
X139700000Y-93205112D01*
X139625153Y-93220000D01*
X135323711Y-93220000D01*
X135206280Y-93102569D01*
X134825874Y-92945000D01*
X134414126Y-92945000D01*
X134033720Y-93102569D01*
X133742569Y-93393720D01*
X133585000Y-93774126D01*
X133585000Y-94185874D01*
X133742569Y-94566280D01*
X134033720Y-94857431D01*
X134414126Y-95015000D01*
X134825874Y-95015000D01*
X135206280Y-94857431D01*
X135323711Y-94740000D01*
X139385199Y-94740000D01*
X139895199Y-95250000D01*
X139215530Y-95929669D01*
X139215527Y-95929671D01*
X137945528Y-97199671D01*
X137882072Y-97242071D01*
X137839672Y-97305527D01*
X137839671Y-97305528D01*
X137714097Y-97493463D01*
X137655112Y-97790000D01*
X137670001Y-97864852D01*
X137670000Y-101285198D01*
X136261337Y-102693861D01*
X136555000Y-101984895D01*
X136555000Y-101215105D01*
X136260414Y-100503910D01*
X135716090Y-99959586D01*
X135004895Y-99665000D01*
X134235105Y-99665000D01*
X133523910Y-99959586D01*
X132979586Y-100503910D01*
X132685000Y-101215105D01*
X132685000Y-101984895D01*
X132979586Y-102696090D01*
X133523910Y-103240414D01*
X134235105Y-103535000D01*
X135004895Y-103535000D01*
X135713861Y-103241337D01*
X134305199Y-104650000D01*
X120329802Y-104650000D01*
X119335331Y-103655530D01*
X119292929Y-103592071D01*
X119041537Y-103424096D01*
X118819852Y-103380000D01*
X118819847Y-103380000D01*
X118745000Y-103365112D01*
X118670153Y-103380000D01*
X115487586Y-103380000D01*
X115463344Y-103258127D01*
X115190385Y-102849615D01*
X114781872Y-102576656D01*
X114300000Y-102480805D01*
X113818127Y-102576656D01*
X113409615Y-102849615D01*
X113136656Y-103258128D01*
X113065000Y-103618365D01*
X113065000Y-104661636D01*
X113136656Y-105021873D01*
X113409616Y-105430385D01*
X113818128Y-105703344D01*
X114300000Y-105799195D01*
X114781873Y-105703344D01*
X115190385Y-105430385D01*
X115463344Y-105021873D01*
X115487586Y-104900000D01*
X118430199Y-104900000D01*
X119424671Y-105894473D01*
X119467071Y-105957929D01*
X119485137Y-105970000D01*
X104850000Y-105970000D01*
X104850000Y-104267000D01*
X107985000Y-104267000D01*
X107985000Y-104667000D01*
X108127610Y-105129947D01*
X108436526Y-105503080D01*
X108864719Y-105729592D01*
X108902391Y-105733462D01*
X109093000Y-105608731D01*
X109093000Y-104267000D01*
X109347000Y-104267000D01*
X109347000Y-105608731D01*
X109537609Y-105733462D01*
X109575281Y-105729592D01*
X110003474Y-105503080D01*
X110312390Y-105129947D01*
X110455000Y-104667000D01*
X110455000Y-104267000D01*
X109347000Y-104267000D01*
X109093000Y-104267000D01*
X107985000Y-104267000D01*
X104850000Y-104267000D01*
X104850000Y-103613000D01*
X107985000Y-103613000D01*
X107985000Y-104013000D01*
X109093000Y-104013000D01*
X109093000Y-102671269D01*
X109347000Y-102671269D01*
X109347000Y-104013000D01*
X110455000Y-104013000D01*
X110455000Y-103618365D01*
X110525000Y-103618365D01*
X110525000Y-104661636D01*
X110596656Y-105021873D01*
X110869616Y-105430385D01*
X111278128Y-105703344D01*
X111760000Y-105799195D01*
X112241873Y-105703344D01*
X112650385Y-105430385D01*
X112923344Y-105021873D01*
X112995000Y-104661635D01*
X112995000Y-103618364D01*
X112923344Y-103258127D01*
X112650385Y-102849615D01*
X112241872Y-102576656D01*
X111760000Y-102480805D01*
X111278127Y-102576656D01*
X110869615Y-102849615D01*
X110596656Y-103258128D01*
X110525000Y-103618365D01*
X110455000Y-103618365D01*
X110455000Y-103613000D01*
X110312390Y-103150053D01*
X110003474Y-102776920D01*
X109575281Y-102550408D01*
X109537609Y-102546538D01*
X109347000Y-102671269D01*
X109093000Y-102671269D01*
X108902391Y-102546538D01*
X108864719Y-102550408D01*
X108436526Y-102776920D01*
X108127610Y-103150053D01*
X107985000Y-103613000D01*
X104850000Y-103613000D01*
X104850000Y-101215105D01*
X127685000Y-101215105D01*
X127685000Y-101984895D01*
X127979586Y-102696090D01*
X128523910Y-103240414D01*
X129235105Y-103535000D01*
X130004895Y-103535000D01*
X130716090Y-103240414D01*
X131260414Y-102696090D01*
X131555000Y-101984895D01*
X131555000Y-101215105D01*
X131260414Y-100503910D01*
X130716090Y-99959586D01*
X130004895Y-99665000D01*
X129235105Y-99665000D01*
X128523910Y-99959586D01*
X127979586Y-100503910D01*
X127685000Y-101215105D01*
X104850000Y-101215105D01*
X104850000Y-97790000D01*
X120260805Y-97790000D01*
X120356656Y-98271873D01*
X120629615Y-98680385D01*
X121038127Y-98953344D01*
X121398364Y-99025000D01*
X122441636Y-99025000D01*
X122801873Y-98953344D01*
X123210385Y-98680385D01*
X123483344Y-98271873D01*
X123579195Y-97790000D01*
X123483344Y-97308127D01*
X123210385Y-96899615D01*
X122801873Y-96626656D01*
X122441636Y-96555000D01*
X121398364Y-96555000D01*
X121038127Y-96626656D01*
X120629615Y-96899615D01*
X120356656Y-97308127D01*
X120260805Y-97790000D01*
X104850000Y-97790000D01*
X104850000Y-94265750D01*
X107285000Y-94265750D01*
X107285000Y-95406309D01*
X107381673Y-95639698D01*
X107560301Y-95818327D01*
X107793690Y-95915000D01*
X108934250Y-95915000D01*
X109093000Y-95756250D01*
X109093000Y-94107000D01*
X109347000Y-94107000D01*
X109347000Y-95756250D01*
X109505750Y-95915000D01*
X110646310Y-95915000D01*
X110879699Y-95818327D01*
X111058327Y-95639698D01*
X111088187Y-95567609D01*
X120326538Y-95567609D01*
X120330408Y-95605281D01*
X120556920Y-96033474D01*
X120930053Y-96342390D01*
X121393000Y-96485000D01*
X121793000Y-96485000D01*
X121793000Y-95377000D01*
X122047000Y-95377000D01*
X122047000Y-96485000D01*
X122447000Y-96485000D01*
X122909947Y-96342390D01*
X123283080Y-96033474D01*
X123509592Y-95605281D01*
X123513462Y-95567609D01*
X123388731Y-95377000D01*
X122047000Y-95377000D01*
X121793000Y-95377000D01*
X120451269Y-95377000D01*
X120326538Y-95567609D01*
X111088187Y-95567609D01*
X111155000Y-95406309D01*
X111155000Y-94932391D01*
X120326538Y-94932391D01*
X120451269Y-95123000D01*
X121793000Y-95123000D01*
X121793000Y-94015000D01*
X122047000Y-94015000D01*
X122047000Y-95123000D01*
X123388731Y-95123000D01*
X123513462Y-94932391D01*
X123509592Y-94894719D01*
X123283080Y-94466526D01*
X122909947Y-94157610D01*
X122447000Y-94015000D01*
X122047000Y-94015000D01*
X121793000Y-94015000D01*
X121393000Y-94015000D01*
X120930053Y-94157610D01*
X120556920Y-94466526D01*
X120330408Y-94894719D01*
X120326538Y-94932391D01*
X111155000Y-94932391D01*
X111155000Y-94265750D01*
X110996250Y-94107000D01*
X109347000Y-94107000D01*
X109093000Y-94107000D01*
X107443750Y-94107000D01*
X107285000Y-94265750D01*
X104850000Y-94265750D01*
X104850000Y-92553691D01*
X107285000Y-92553691D01*
X107285000Y-93694250D01*
X107443750Y-93853000D01*
X109093000Y-93853000D01*
X109093000Y-92203750D01*
X109347000Y-92203750D01*
X109347000Y-93853000D01*
X110996250Y-93853000D01*
X111155000Y-93694250D01*
X111155000Y-92710000D01*
X120260805Y-92710000D01*
X120356656Y-93191873D01*
X120629615Y-93600385D01*
X121038127Y-93873344D01*
X121398364Y-93945000D01*
X122441636Y-93945000D01*
X122801873Y-93873344D01*
X123210385Y-93600385D01*
X123483344Y-93191873D01*
X123579195Y-92710000D01*
X123483344Y-92228127D01*
X123210385Y-91819615D01*
X122801873Y-91546656D01*
X122441636Y-91475000D01*
X121398364Y-91475000D01*
X121038127Y-91546656D01*
X120629615Y-91819615D01*
X120356656Y-92228127D01*
X120260805Y-92710000D01*
X111155000Y-92710000D01*
X111155000Y-92553691D01*
X111058327Y-92320302D01*
X110879699Y-92141673D01*
X110646310Y-92045000D01*
X109505750Y-92045000D01*
X109347000Y-92203750D01*
X109093000Y-92203750D01*
X108934250Y-92045000D01*
X107793690Y-92045000D01*
X107560301Y-92141673D01*
X107381673Y-92320302D01*
X107285000Y-92553691D01*
X104850000Y-92553691D01*
X104850000Y-88515105D01*
X107285000Y-88515105D01*
X107285000Y-89284895D01*
X107579586Y-89996090D01*
X108123910Y-90540414D01*
X108835105Y-90835000D01*
X109604895Y-90835000D01*
X110316090Y-90540414D01*
X110724504Y-90132000D01*
X136982560Y-90132000D01*
X136982560Y-91732000D01*
X137031843Y-91979765D01*
X137172191Y-92189809D01*
X137382235Y-92330157D01*
X137630000Y-92379440D01*
X139230000Y-92379440D01*
X139477765Y-92330157D01*
X139687809Y-92189809D01*
X139828157Y-91979765D01*
X139877440Y-91732000D01*
X139877440Y-90646561D01*
X140495000Y-90646561D01*
X140495000Y-91217439D01*
X140713466Y-91744862D01*
X141117138Y-92148534D01*
X141644561Y-92367000D01*
X142215439Y-92367000D01*
X142742862Y-92148534D01*
X143146534Y-91744862D01*
X143365000Y-91217439D01*
X143365000Y-90646561D01*
X143146534Y-90119138D01*
X142742862Y-89715466D01*
X142215439Y-89497000D01*
X141644561Y-89497000D01*
X141117138Y-89715466D01*
X140713466Y-90119138D01*
X140495000Y-90646561D01*
X139877440Y-90646561D01*
X139877440Y-90132000D01*
X139828157Y-89884235D01*
X139687809Y-89674191D01*
X139477765Y-89533843D01*
X139230000Y-89484560D01*
X137630000Y-89484560D01*
X137382235Y-89533843D01*
X137172191Y-89674191D01*
X137031843Y-89884235D01*
X136982560Y-90132000D01*
X110724504Y-90132000D01*
X110860414Y-89996090D01*
X111155000Y-89284895D01*
X111155000Y-88515105D01*
X110860414Y-87803910D01*
X110656504Y-87600000D01*
X152230560Y-87600000D01*
X152230560Y-90200000D01*
X152279843Y-90447765D01*
X152420191Y-90657809D01*
X152630235Y-90798157D01*
X152878000Y-90847440D01*
X155478000Y-90847440D01*
X155725765Y-90798157D01*
X155935809Y-90657809D01*
X156076157Y-90447765D01*
X156125440Y-90200000D01*
X156125440Y-87600000D01*
X156076157Y-87352235D01*
X155935809Y-87142191D01*
X155725765Y-87001843D01*
X155478000Y-86952560D01*
X152878000Y-86952560D01*
X152630235Y-87001843D01*
X152420191Y-87142191D01*
X152279843Y-87352235D01*
X152230560Y-87600000D01*
X110656504Y-87600000D01*
X110316090Y-87259586D01*
X109604895Y-86965000D01*
X108835105Y-86965000D01*
X108123910Y-87259586D01*
X107579586Y-87803910D01*
X107285000Y-88515105D01*
X104850000Y-88515105D01*
X104850000Y-83020000D01*
X120472560Y-83020000D01*
X120472560Y-84620000D01*
X120521843Y-84867765D01*
X120662191Y-85077809D01*
X120872235Y-85218157D01*
X121120000Y-85267440D01*
X122720000Y-85267440D01*
X122967765Y-85218157D01*
X123177809Y-85077809D01*
X123318157Y-84867765D01*
X123367440Y-84620000D01*
X123367440Y-83020000D01*
X123318157Y-82772235D01*
X123177809Y-82562191D01*
X122967765Y-82421843D01*
X122720000Y-82372560D01*
X121120000Y-82372560D01*
X120872235Y-82421843D01*
X120662191Y-82562191D01*
X120521843Y-82772235D01*
X120472560Y-83020000D01*
X104850000Y-83020000D01*
X104850000Y-81327745D01*
X121091861Y-81327745D01*
X121165995Y-81573864D01*
X121703223Y-81766965D01*
X122273454Y-81739778D01*
X122674005Y-81573864D01*
X122748139Y-81327745D01*
X122616395Y-81196000D01*
X130332560Y-81196000D01*
X130332560Y-83396000D01*
X130381843Y-83643765D01*
X130522191Y-83853809D01*
X130732235Y-83994157D01*
X130980000Y-84043440D01*
X133180000Y-84043440D01*
X133427765Y-83994157D01*
X133637809Y-83853809D01*
X133778157Y-83643765D01*
X133827440Y-83396000D01*
X133827440Y-82296000D01*
X140471010Y-82296000D01*
X140605666Y-82972963D01*
X140989135Y-83546865D01*
X141563037Y-83930334D01*
X142069120Y-84031000D01*
X142410880Y-84031000D01*
X142916963Y-83930334D01*
X143490865Y-83546865D01*
X143874334Y-82972963D01*
X144008990Y-82296000D01*
X143874334Y-81619037D01*
X143490865Y-81045135D01*
X142916963Y-80661666D01*
X142410880Y-80561000D01*
X142069120Y-80561000D01*
X141563037Y-80661666D01*
X140989135Y-81045135D01*
X140605666Y-81619037D01*
X140471010Y-82296000D01*
X133827440Y-82296000D01*
X133827440Y-81196000D01*
X133778157Y-80948235D01*
X133637809Y-80738191D01*
X133427765Y-80597843D01*
X133180000Y-80548560D01*
X130980000Y-80548560D01*
X130732235Y-80597843D01*
X130522191Y-80738191D01*
X130381843Y-80948235D01*
X130332560Y-81196000D01*
X122616395Y-81196000D01*
X121920000Y-80499605D01*
X121091861Y-81327745D01*
X104850000Y-81327745D01*
X104850000Y-80103223D01*
X120473035Y-80103223D01*
X120500222Y-80673454D01*
X120666136Y-81074005D01*
X120912255Y-81148139D01*
X121740395Y-80320000D01*
X122099605Y-80320000D01*
X122927745Y-81148139D01*
X123173864Y-81074005D01*
X123366965Y-80536777D01*
X123339778Y-79966546D01*
X123173864Y-79565995D01*
X122927745Y-79491861D01*
X122099605Y-80320000D01*
X121740395Y-80320000D01*
X120912255Y-79491861D01*
X120666136Y-79565995D01*
X120473035Y-80103223D01*
X104850000Y-80103223D01*
X104850000Y-79312255D01*
X121091861Y-79312255D01*
X121920000Y-80140395D01*
X122748139Y-79312255D01*
X122674005Y-79066136D01*
X122136777Y-78873035D01*
X121566546Y-78900222D01*
X121165995Y-79066136D01*
X121091861Y-79312255D01*
X104850000Y-79312255D01*
X104850000Y-76910000D01*
X159310000Y-76910000D01*
X159310001Y-105970000D01*
G04 #@! TD*
M02*
